ffmpeg started on 2026-04-01 at 10:46:16
Report written to "D:\Convert\FFMetrics\reports\psnr_report-6.txt"
Log level: 32
Command line:
ffmpeg -hide_banner -nostdin -r 24000/1001 -i "F:\\Convert\\files\\[DC] Make Heroine ga Oosugiru - 07_Telegram_HEVC(257).mkv" -r 24000/1001 -i "F:\\Convert\\files\\[DC] Make Heroine ga Oosugiru - 07_Telegram.mp4" -lavfi "[0:v]settb=AVTB,setpts=PTS-STARTPTS,format=pix_fmts=yuv420p10le,fps=24000/1001,scale=1920:1080:flags=lanczos:param0=3:out_range=limited:out_color_matrix=bt709:out_chroma_loc=left,setsar=1/1,setdar=(1920/1080)*(1/1),colorspace=format=yuv420p10:range=tv:primaries=bt709:trc=bt709:space=bt709:fast=0[main];[1:v]settb=AVTB,setpts=PTS-STARTPTS,format=pix_fmts=yuv420p,fps=24000/1001,scale=1920:1080:flags=lanczos:param0=3:out_range=limited:out_color_matrix=bt709:out_chroma_loc=left,setsar=1/1,setdar=(1920/1080)*(1/1),colorspace=format=yuv420p:range=tv:primaries=bt709:trc=bt709:space=bt709:fast=0[ref];[main][ref]psnr=eof_action=endall:stats_file='D\\:/Convert/FFMetrics/logs/psnr_logfile-6.txt'" -f null -
Input #0, matroska,webm, from 'F:\Convert\files\[DC] Make Heroine ga Oosugiru - 07_Telegram_HEVC(257).mkv':
  Metadata:
    COMPATIBLE_BRANDS: isomiso2avc1mp41
    MAJOR_BRAND     : isom
    MINOR_VERSION   : 512
    ENCODER         : Lavf61.7.100
  Duration: 00:24:06.79, start: -0.021000, bitrate: 941 kb/s
  Stream #0:0: Video: hevc (Main 10), yuv420p10le(tv, bt709, progressive), 1920x1080 [SAR 1:1 DAR 16:9], 23.98 fps, 23.98 tbr, 1k tbn (default)
      Metadata:
        HANDLER_NAME    : VideoHandler
        VENDOR_ID       : [0][0][0][0]
        ENCODER         : Lavc61.19.100 libx265
        BPS             : 744683
        DURATION        : 00:24:06.569708333
        NUMBER_OF_FRAMES: 34683
        NUMBER_OF_BYTES : 134654497
        _STATISTICS_WRITING_APP: mkvpropedit v94.0 ('Initiate') 64-bit
        _STATISTICS_WRITING_DATE_UTC: 2026-03-30 09:40:45
        _STATISTICS_TAGS: BPS DURATION NUMBER_OF_FRAMES NUMBER_OF_BYTES
  Stream #0:1: Audio: aac (LC), 48000 Hz, stereo, fltp (default)
      Metadata:
        HANDLER_NAME    : SoundHandler
        VENDOR_ID       : [0][0][0][0]
        ENCODER         : Lavc61.19.100 aac
        BPS             : 193194
        DURATION        : 00:24:06.784000000
        NUMBER_OF_FRAMES: 67819
        NUMBER_OF_BYTES : 34938755
        _STATISTICS_WRITING_APP: mkvpropedit v94.0 ('Initiate') 64-bit
        _STATISTICS_WRITING_DATE_UTC: 2026-03-30 09:40:45
        _STATISTICS_TAGS: BPS DURATION NUMBER_OF_FRAMES NUMBER_OF_BYTES
Input #1, mov,mp4,m4a,3gp,3g2,mj2, from 'F:\Convert\files\[DC] Make Heroine ga Oosugiru - 07_Telegram.mp4':
  Metadata:
    major_brand     : isom
    minor_version   : 512
    compatible_brands: isomiso2avc1mp41
    encoder         : Lavf60.16.100
  Duration: 00:24:06.74, start: 0.000000, bitrate: 3764 kb/s
  Stream #1:0[0x1](und): Video: h264 (High) (avc1 / 0x31637661), yuv420p(tv, bt709, progressive), 1920x1080 [SAR 1:1 DAR 16:9], 3616 kb/s, 23.98 fps, 23.98 tbr, 24k tbn (default)
      Metadata:
        handler_name    : VideoHandler
        vendor_id       : [0][0][0][0]
        encoder         : Lavc60.31.102 h264_qsv
  Stream #1:1[0x2](und): Audio: aac (HE-AACv2) (mp4a / 0x6134706D), 48000 Hz, stereo, fltp, 144 kb/s (default)
      Metadata:
        handler_name    : SoundHandler
        vendor_id       : [0][0][0][0]
Stream mapping:
  Stream #0:0 (hevc) -> settb:default
  Stream #1:0 (h264) -> settb:default
  psnr:default -> Stream #0:0 (wrapped_avframe)
  Stream #0:1 -> #0:1 (aac (native) -> pcm_s16le (native))
Output #0, null, to 'pipe:':
  Metadata:
    COMPATIBLE_BRANDS: isomiso2avc1mp41
    MAJOR_BRAND     : isom
    MINOR_VERSION   : 512
    encoder         : Lavf61.7.100
  Stream #0:0: Video: wrapped_avframe, yuv420p10le(tv, bt709, progressive), 1920x1080 [SAR 1:1 DAR 16:9], q=2-31, 200 kb/s, 23.98 fps, 23.98 tbn
      Metadata:
        encoder         : Lavc61.19.100 wrapped_avframe
  Stream #0:1: Audio: pcm_s16le, 48000 Hz, stereo, s16, 1536 kb/s (default)
      Metadata:
        HANDLER_NAME    : SoundHandler
        VENDOR_ID       : [0][0][0][0]
        _STATISTICS_TAGS: BPS DURATION NUMBER_OF_FRAMES NUMBER_OF_BYTES
        BPS             : 193194
        DURATION        : 00:24:06.784000000
        NUMBER_OF_FRAMES: 67819
        NUMBER_OF_BYTES : 34938755
        _STATISTICS_WRITING_APP: mkvpropedit v94.0 ('Initiate') 64-bit
        _STATISTICS_WRITING_DATE_UTC: 2026-03-30 09:40:45
        encoder         : Lavc61.19.100 pcm_s16le
frame=   76 fps=0.0 q=-0.0 size=N/A time=00:00:03.16 bitrate=N/A speed= 6.2x    frame=  230 fps=225 q=-0.0 size=N/A time=00:00:09.59 bitrate=N/A speed=9.37x    frame=  419 fps=273 q=-0.0 size=N/A time=00:00:17.47 bitrate=N/A speed=11.4x    frame=  627 fps=304 q=-0.0 size=N/A time=00:00:26.15 bitrate=N/A speed=12.7x    frame=  819 fps=318 q=-0.0 size=N/A time=00:00:34.15 bitrate=N/A speed=13.3x    frame=  973 fps=315 q=-0.0 size=N/A time=00:00:40.58 bitrate=N/A speed=13.2x    frame= 1130 fps=314 q=-0.0 size=N/A time=00:00:47.13 bitrate=N/A speed=13.1x    frame= 1290 fps=313 q=-0.0 size=N/A time=00:00:53.80 bitrate=N/A speed=  13x    frame= 1448 fps=312 q=-0.0 size=N/A time=00:01:00.39 bitrate=N/A speed=  13x    frame= 1566 fps=304 q=-0.0 size=N/A time=00:01:05.31 bitrate=N/A speed=12.7x    frame= 1720 fps=303 q=-0.0 size=N/A time=00:01:11.73 bitrate=N/A speed=12.6x    frame= 1874 fps=303 q=-0.0 size=N/A time=00:01:18.16 bitrate=N/A speed=12.6x    frame= 2037 fps=304 q=-0.0 size=N/A time=00:01:24.95 bitrate=N/A speed=12.7x    frame= 2141 fps=297 q=-0.0 size=N/A time=00:01:29.29 bitrate=N/A speed=12.4x    frame= 2305 fps=298 q=-0.0 size=N/A time=00:01:36.13 bitrate=N/A speed=12.4x    frame= 2448 fps=296 q=-0.0 size=N/A time=00:01:42.10 bitrate=N/A speed=12.4x    frame= 2563 fps=292 q=-0.0 size=N/A time=00:01:46.89 bitrate=N/A speed=12.2x    frame= 2730 fps=294 q=-0.0 size=N/A time=00:01:53.86 bitrate=N/A speed=12.3x    frame= 2911 fps=297 q=-0.0 size=N/A time=00:02:01.41 bitrate=N/A speed=12.4x    frame= 3101 fps=300 q=-0.0 size=N/A time=00:02:09.33 bitrate=N/A speed=12.5x    frame= 3308 fps=305 q=-0.0 size=N/A time=00:02:17.97 bitrate=N/A speed=12.7x    frame= 3504 fps=309 q=-0.0 size=N/A time=00:02:26.14 bitrate=N/A speed=12.9x    frame= 3724 fps=314 q=-0.0 size=N/A time=00:02:35.32 bitrate=N/A speed=13.1x    frame= 3927 fps=317 q=-0.0 size=N/A time=00:02:43.78 bitrate=N/A speed=13.2x    frame= 4138 fps=321 q=-0.0 size=N/A time=00:02:52.58 bitrate=N/A speed=13.4x    frame= 4342 fps=324 q=-0.0 size=N/A time=00:03:01.09 bitrate=N/A speed=13.5x    frame= 4546 fps=326 q=-0.0 size=N/A time=00:03:09.60 bitrate=N/A speed=13.6x    frame= 4735 fps=328 q=-0.0 size=N/A time=00:03:17.48 bitrate=N/A speed=13.7x    frame= 4931 fps=330 q=-0.0 size=N/A time=00:03:25.66 bitrate=N/A speed=13.7x    frame= 5118 fps=331 q=-0.0 size=N/A time=00:03:33.46 bitrate=N/A speed=13.8x    frame= 5305 fps=332 q=-0.0 size=N/A time=00:03:41.26 bitrate=N/A speed=13.8x    frame= 5500 fps=333 q=-0.0 size=N/A time=00:03:49.39 bitrate=N/A speed=13.9x    frame= 5664 fps=333 q=-0.0 size=N/A time=00:03:56.23 bitrate=N/A speed=13.9x    frame= 5864 fps=334 q=-0.0 size=N/A time=00:04:04.57 bitrate=N/A speed=13.9x    frame= 6051 fps=335 q=-0.0 size=N/A time=00:04:12.37 bitrate=N/A speed=  14x    frame= 6245 fps=336 q=-0.0 size=N/A time=00:04:20.46 bitrate=N/A speed=  14x    frame= 6445 fps=338 q=-0.0 size=N/A time=00:04:28.81 bitrate=N/A speed=14.1x    frame= 6643 fps=339 q=-0.0 size=N/A time=00:04:37.06 bitrate=N/A speed=14.1x    frame= 6852 fps=340 q=-0.0 size=N/A time=00:04:45.78 bitrate=N/A speed=14.2x    frame= 7042 fps=341 q=-0.0 size=N/A time=00:04:53.71 bitrate=N/A speed=14.2x    frame= 7215 fps=341 q=-0.0 size=N/A time=00:05:00.92 bitrate=N/A speed=14.2x    frame= 7417 fps=342 q=-0.0 size=N/A time=00:05:09.35 bitrate=N/A speed=14.3x    frame= 7588 fps=342 q=-0.0 size=N/A time=00:05:16.48 bitrate=N/A speed=14.3x    frame= 7770 fps=342 q=-0.0 size=N/A time=00:05:24.07 bitrate=N/A speed=14.3x    frame= 7944 fps=342 q=-0.0 size=N/A time=00:05:31.33 bitrate=N/A speed=14.3x    frame= 8123 fps=342 q=-0.0 size=N/A time=00:05:38.79 bitrate=N/A speed=14.3x    frame= 8329 fps=344 q=-0.0 size=N/A time=00:05:47.38 bitrate=N/A speed=14.3x    frame= 8520 fps=344 q=-0.0 size=N/A time=00:05:55.35 bitrate=N/A speed=14.4x    frame= 8727 fps=345 q=-0.0 size=N/A time=00:06:03.98 bitrate=N/A speed=14.4x    frame= 8920 fps=346 q=-0.0 size=N/A time=00:06:12.03 bitrate=N/A speed=14.4x    frame= 9114 fps=347 q=-0.0 size=N/A time=00:06:20.12 bitrate=N/A speed=14.5x    frame= 9312 fps=347 q=-0.0 size=N/A time=00:06:28.38 bitrate=N/A speed=14.5x    frame= 9517 fps=348 q=-0.0 size=N/A time=00:06:36.93 bitrate=N/A speed=14.5x    frame= 9709 fps=349 q=-0.0 size=N/A time=00:06:44.94 bitrate=N/A speed=14.5x    frame= 9902 fps=349 q=-0.0 size=N/A time=00:06:52.99 bitrate=N/A speed=14.6x    frame=10108 fps=350 q=-0.0 size=N/A time=00:07:01.58 bitrate=N/A speed=14.6x    frame=10307 fps=351 q=-0.0 size=N/A time=00:07:09.88 bitrate=N/A speed=14.6x    frame=10503 fps=351 q=-0.0 size=N/A time=00:07:18.06 bitrate=N/A speed=14.6x    frame=10696 fps=351 q=-0.0 size=N/A time=00:07:26.11 bitrate=N/A speed=14.7x    frame=10901 fps=352 q=-0.0 size=N/A time=00:07:34.66 bitrate=N/A speed=14.7x    frame=11101 fps=353 q=-0.0 size=N/A time=00:07:43.00 bitrate=N/A speed=14.7x    frame=11282 fps=353 q=-0.0 size=N/A time=00:07:50.55 bitrate=N/A speed=14.7x    frame=11473 fps=353 q=-0.0 size=N/A time=00:07:58.51 bitrate=N/A speed=14.7x    frame=11669 fps=353 q=-0.0 size=N/A time=00:08:06.69 bitrate=N/A speed=14.7x    frame=11853 fps=353 q=-0.0 size=N/A time=00:08:14.36 bitrate=N/A speed=14.7x    frame=12031 fps=353 q=-0.0 size=N/A time=00:08:21.79 bitrate=N/A speed=14.7x    frame=12228 fps=354 q=-0.0 size=N/A time=00:08:30.00 bitrate=N/A speed=14.8x    frame=12418 fps=354 q=-0.0 size=N/A time=00:08:37.93 bitrate=N/A speed=14.8x    frame=12616 fps=354 q=-0.0 size=N/A time=00:08:46.19 bitrate=N/A speed=14.8x    frame=12825 fps=355 q=-0.0 size=N/A time=00:08:54.90 bitrate=N/A speed=14.8x    frame=13014 fps=355 q=-0.0 size=N/A time=00:09:02.79 bitrate=N/A speed=14.8x    frame=13215 fps=356 q=-0.0 size=N/A time=00:09:11.17 bitrate=N/A speed=14.8x    frame=13404 fps=356 q=-0.0 size=N/A time=00:09:19.05 bitrate=N/A speed=14.8x    frame=13598 fps=356 q=-0.0 size=N/A time=00:09:27.14 bitrate=N/A speed=14.9x    frame=13793 fps=357 q=-0.0 size=N/A time=00:09:35.28 bitrate=N/A speed=14.9x    frame=13991 fps=357 q=-0.0 size=N/A time=00:09:43.54 bitrate=N/A speed=14.9x    frame=14167 fps=357 q=-0.0 size=N/A time=00:09:50.88 bitrate=N/A speed=14.9x    frame=14361 fps=357 q=-0.0 size=N/A time=00:09:58.97 bitrate=N/A speed=14.9x    frame=14549 fps=357 q=-0.0 size=N/A time=00:10:06.81 bitrate=N/A speed=14.9x    frame=14749 fps=357 q=-0.0 size=N/A time=00:10:15.15 bitrate=N/A speed=14.9x    frame=14942 fps=358 q=-0.0 size=N/A time=00:10:23.20 bitrate=N/A speed=14.9x    frame=15120 fps=357 q=-0.0 size=N/A time=00:10:30.63 bitrate=N/A speed=14.9x    frame=15291 fps=357 q=-0.0 size=N/A time=00:10:37.76 bitrate=N/A speed=14.9x    frame=15488 fps=357 q=-0.0 size=N/A time=00:10:45.97 bitrate=N/A speed=14.9x    frame=15690 fps=358 q=-0.0 size=N/A time=00:10:54.40 bitrate=N/A speed=14.9x    frame=15893 fps=358 q=-0.0 size=N/A time=00:11:02.87 bitrate=N/A speed=14.9x    frame=16090 fps=358 q=-0.0 size=N/A time=00:11:11.08 bitrate=N/A speed=14.9x    frame=16292 fps=359 q=-0.0 size=N/A time=00:11:19.51 bitrate=N/A speed=  15x    frame=16493 fps=359 q=-0.0 size=N/A time=00:11:27.89 bitrate=N/A speed=  15x    frame=16690 fps=359 q=-0.0 size=N/A time=00:11:36.11 bitrate=N/A speed=  15x    frame=16884 fps=360 q=-0.0 size=N/A time=00:11:44.20 bitrate=N/A speed=  15x    frame=17092 fps=360 q=-0.0 size=N/A time=00:11:52.87 bitrate=N/A speed=  15x    frame=17304 fps=360 q=-0.0 size=N/A time=00:12:01.72 bitrate=N/A speed=  15x    frame=17496 fps=361 q=-0.0 size=N/A time=00:12:09.72 bitrate=N/A speed=  15x    frame=17679 fps=361 q=-0.0 size=N/A time=00:12:17.36 bitrate=N/A speed=  15x    frame=17881 fps=361 q=-0.0 size=N/A time=00:12:25.78 bitrate=N/A speed=15.1x    frame=18091 fps=361 q=-0.0 size=N/A time=00:12:34.54 bitrate=N/A speed=15.1x    frame=18283 fps=361 q=-0.0 size=N/A time=00:12:42.55 bitrate=N/A speed=15.1x    frame=18453 fps=361 q=-0.0 size=N/A time=00:12:49.64 bitrate=N/A speed=15.1x    frame=18654 fps=361 q=-0.0 size=N/A time=00:12:58.02 bitrate=N/A speed=15.1x    frame=18852 fps=362 q=-0.0 size=N/A time=00:13:06.28 bitrate=N/A speed=15.1x    frame=19040 fps=362 q=-0.0 size=N/A time=00:13:14.12 bitrate=N/A speed=15.1x    frame=19250 fps=362 q=-0.0 size=N/A time=00:13:22.88 bitrate=N/A speed=15.1x    frame=19430 fps=362 q=-0.0 size=N/A time=00:13:30.39 bitrate=N/A speed=15.1x    frame=19627 fps=362 q=-0.0 size=N/A time=00:13:38.60 bitrate=N/A speed=15.1x    frame=19826 fps=362 q=-0.0 size=N/A time=00:13:46.90 bitrate=N/A speed=15.1x    frame=20033 fps=363 q=-0.0 size=N/A time=00:13:55.54 bitrate=N/A speed=15.1x    frame=20244 fps=363 q=-0.0 size=N/A time=00:14:04.34 bitrate=N/A speed=15.1x    frame=20431 fps=363 q=-0.0 size=N/A time=00:14:12.14 bitrate=N/A speed=15.1x    frame=20615 fps=363 q=-0.0 size=N/A time=00:14:19.81 bitrate=N/A speed=15.1x    frame=20820 fps=363 q=-0.0 size=N/A time=00:14:28.36 bitrate=N/A speed=15.2x    frame=21022 fps=364 q=-0.0 size=N/A time=00:14:36.79 bitrate=N/A speed=15.2x    frame=21208 fps=364 q=-0.0 size=N/A time=00:14:44.55 bitrate=N/A speed=15.2x    frame=21417 fps=364 q=-0.0 size=N/A time=00:14:53.26 bitrate=N/A speed=15.2x    frame=21620 fps=364 q=-0.0 size=N/A time=00:15:01.73 bitrate=N/A speed=15.2x    frame=21813 fps=364 q=-0.0 size=N/A time=00:15:09.78 bitrate=N/A speed=15.2x    frame=22012 fps=365 q=-0.0 size=N/A time=00:15:18.08 bitrate=N/A speed=15.2x    frame=22209 fps=365 q=-0.0 size=N/A time=00:15:26.30 bitrate=N/A speed=15.2x    frame=22390 fps=365 q=-0.0 size=N/A time=00:15:33.84 bitrate=N/A speed=15.2x    frame=22600 fps=365 q=-0.0 size=N/A time=00:15:42.60 bitrate=N/A speed=15.2x    frame=22788 fps=365 q=-0.0 size=N/A time=00:15:50.44 bitrate=N/A speed=15.2x    frame=22978 fps=365 q=-0.0 size=N/A time=00:15:58.37 bitrate=N/A speed=15.2x    frame=23173 fps=365 q=-0.0 size=N/A time=00:16:06.50 bitrate=N/A speed=15.2x    frame=23373 fps=365 q=-0.0 size=N/A time=00:16:14.84 bitrate=N/A speed=15.2x    frame=23564 fps=365 q=-0.0 size=N/A time=00:16:22.81 bitrate=N/A speed=15.2x    frame=23750 fps=365 q=-0.0 size=N/A time=00:16:30.57 bitrate=N/A speed=15.2x    frame=23944 fps=365 q=-0.0 size=N/A time=00:16:38.66 bitrate=N/A speed=15.2x    frame=24136 fps=365 q=-0.0 size=N/A time=00:16:46.67 bitrate=N/A speed=15.2x    frame=24325 fps=365 q=-0.0 size=N/A time=00:16:54.55 bitrate=N/A speed=15.2x    frame=24518 fps=365 q=-0.0 size=N/A time=00:17:02.60 bitrate=N/A speed=15.2x    frame=24712 fps=366 q=-0.0 size=N/A time=00:17:10.69 bitrate=N/A speed=15.2x    frame=24912 fps=366 q=-0.0 size=N/A time=00:17:19.03 bitrate=N/A speed=15.3x    frame=25114 fps=366 q=-0.0 size=N/A time=00:17:27.46 bitrate=N/A speed=15.3x    frame=25310 fps=366 q=-0.0 size=N/A time=00:17:35.63 bitrate=N/A speed=15.3x    frame=25514 fps=366 q=-0.0 size=N/A time=00:17:44.14 bitrate=N/A speed=15.3x    frame=25709 fps=366 q=-0.0 size=N/A time=00:17:52.27 bitrate=N/A speed=15.3x    frame=25904 fps=366 q=-0.0 size=N/A time=00:18:00.41 bitrate=N/A speed=15.3x    frame=26096 fps=366 q=-0.0 size=N/A time=00:18:08.42 bitrate=N/A speed=15.3x    frame=26303 fps=367 q=-0.0 size=N/A time=00:18:17.05 bitrate=N/A speed=15.3x    frame=26505 fps=367 q=-0.0 size=N/A time=00:18:25.47 bitrate=N/A speed=15.3x    frame=26696 fps=367 q=-0.0 size=N/A time=00:18:33.44 bitrate=N/A speed=15.3x    frame=26892 fps=367 q=-0.0 size=N/A time=00:18:41.62 bitrate=N/A speed=15.3x    frame=27074 fps=367 q=-0.0 size=N/A time=00:18:49.21 bitrate=N/A speed=15.3x    frame=27256 fps=367 q=-0.0 size=N/A time=00:18:56.80 bitrate=N/A speed=15.3x    frame=27447 fps=367 q=-0.0 size=N/A time=00:19:04.76 bitrate=N/A speed=15.3x    frame=27635 fps=367 q=-0.0 size=N/A time=00:19:12.60 bitrate=N/A speed=15.3x    frame=27825 fps=367 q=-0.0 size=N/A time=00:19:20.53 bitrate=N/A speed=15.3x    frame=28010 fps=367 q=-0.0 size=N/A time=00:19:28.25 bitrate=N/A speed=15.3x    frame=28200 fps=367 q=-0.0 size=N/A time=00:19:36.17 bitrate=N/A speed=15.3x    frame=28386 fps=367 q=-0.0 size=N/A time=00:19:43.93 bitrate=N/A speed=15.3x    frame=28574 fps=367 q=-0.0 size=N/A time=00:19:51.77 bitrate=N/A speed=15.3x    frame=28760 fps=367 q=-0.0 size=N/A time=00:19:59.53 bitrate=N/A speed=15.3x    frame=28930 fps=366 q=-0.0 size=N/A time=00:20:06.62 bitrate=N/A speed=15.3x    frame=29107 fps=366 q=-0.0 size=N/A time=00:20:14.00 bitrate=N/A speed=15.3x    frame=29288 fps=366 q=-0.0 size=N/A time=00:20:21.55 bitrate=N/A speed=15.3x    frame=29466 fps=366 q=-0.0 size=N/A time=00:20:28.97 bitrate=N/A speed=15.3x    frame=29643 fps=366 q=-0.0 size=N/A time=00:20:36.36 bitrate=N/A speed=15.3x    frame=29828 fps=366 q=-0.0 size=N/A time=00:20:44.07 bitrate=N/A speed=15.3x    frame=29991 fps=366 q=-0.0 size=N/A time=00:20:50.87 bitrate=N/A speed=15.2x    frame=30172 fps=365 q=-0.0 size=N/A time=00:20:58.42 bitrate=N/A speed=15.2x    frame=30346 fps=365 q=-0.0 size=N/A time=00:21:05.68 bitrate=N/A speed=15.2x    frame=30551 fps=365 q=-0.0 size=N/A time=00:21:14.23 bitrate=N/A speed=15.2x    frame=30745 fps=366 q=-0.0 size=N/A time=00:21:22.32 bitrate=N/A speed=15.2x    frame=30948 fps=366 q=-0.0 size=N/A time=00:21:30.78 bitrate=N/A speed=15.3x    frame=31145 fps=366 q=-0.0 size=N/A time=00:21:39.00 bitrate=N/A speed=15.3x    frame=31345 fps=366 q=-0.0 size=N/A time=00:21:47.34 bitrate=N/A speed=15.3x    frame=31534 fps=366 q=-0.0 size=N/A time=00:21:55.23 bitrate=N/A speed=15.3x    frame=31718 fps=366 q=-0.0 size=N/A time=00:22:02.90 bitrate=N/A speed=15.3x    frame=31897 fps=366 q=-0.0 size=N/A time=00:22:10.37 bitrate=N/A speed=15.3x    frame=32076 fps=366 q=-0.0 size=N/A time=00:22:17.83 bitrate=N/A speed=15.3x    frame=32278 fps=366 q=-0.0 size=N/A time=00:22:26.26 bitrate=N/A speed=15.3x    frame=32478 fps=366 q=-0.0 size=N/A time=00:22:34.60 bitrate=N/A speed=15.3x    frame=32653 fps=366 q=-0.0 size=N/A time=00:22:41.90 bitrate=N/A speed=15.3x    frame=32811 fps=365 q=-0.0 size=N/A time=00:22:48.49 bitrate=N/A speed=15.2x    frame=32977 fps=365 q=-0.0 size=N/A time=00:22:55.41 bitrate=N/A speed=15.2x    frame=33149 fps=365 q=-0.0 size=N/A time=00:23:02.58 bitrate=N/A speed=15.2x    frame=33328 fps=365 q=-0.0 size=N/A time=00:23:10.05 bitrate=N/A speed=15.2x    frame=33486 fps=365 q=-0.0 size=N/A time=00:23:16.64 bitrate=N/A speed=15.2x    frame=33636 fps=364 q=-0.0 size=N/A time=00:23:22.90 bitrate=N/A speed=15.2x    frame=33764 fps=364 q=-0.0 size=N/A time=00:23:28.24 bitrate=N/A speed=15.2x    frame=33886 fps=363 q=-0.0 size=N/A time=00:23:33.32 bitrate=N/A speed=15.1x    frame=34038 fps=362 q=-0.0 size=N/A time=00:23:39.66 bitrate=N/A speed=15.1x    frame=34194 fps=362 q=-0.0 size=N/A time=00:23:46.17 bitrate=N/A speed=15.1x    frame=34335 fps=362 q=-0.0 size=N/A time=00:23:52.05 bitrate=N/A speed=15.1x    frame=34454 fps=361 q=-0.0 size=N/A time=00:23:57.01 bitrate=N/A speed=15.1x    frame=34627 fps=361 q=-0.0 size=N/A time=00:24:04.23 bitrate=N/A speed=15.1x    [Parsed_psnr_16 @ 0000013733358200] PSNR y:48.756894 u:50.294767 v:50.343610 average:49.217889 min:37.982760 max:inf
[out#0/null @ 000001372660dec0] video:14903KiB audio:271276KiB subtitle:0KiB other streams:0KiB global headers:0KiB muxing overhead: unknown
frame=34683 fps=361 q=-0.0 Lsize=N/A time=00:24:06.57 bitrate=N/A speed=  15x    
